<svg id="kity_svg_6" xmlns="http://www.w3.org/2000/svg" xmlns:xlink="http://www.w3.org/1999/xlink" version="1.1" width="1485" height="843" style="background: rgb(251, 251, 251); visibility: visible;" viewBox="0 0 1485 843"><defs id="kity_defs_7"><linearGradient id="kity_linearGradient_17" x1="0" y1="0" x2="0" y2="1"><stop id="kity_stop_18" offset="0" stop-color="rgb(255, 255, 255)"></stop><stop id="kity_stop_19" offset="1" stop-color="rgb(204, 204, 204)"></stop></linearGradient><marker id="kity_marker_2" orient="auto" refX="6" refY="0" viewBox="-7 -7 14 14" markerWidth="7" markerHeight="7" markerUnits="userSpaceOnUse"><path id="kity_path_3" fill="rgb(115, 161, 191)" stroke="none" d="M6,0A6,6,0,1,1,-6,0A6,6,0,1,1,6,0"></path></marker></defs><g id="kity_g_8"><g id="minder1" text-rendering="optimize-speed"><g id="minder_connect_group1"><path id="kity_path_31" fill="none" stroke="rgb(115, 161, 191)" stroke-width="1" d="M757.0000280290842,303.50000374019146A171.5,130,0,0,1,928.5000280290842,173.50000374019146"></path><path id="kity_path_39" fill="none" stroke="rgb(115, 161, 191)" stroke-width="1" d="M1027.5000280290842,173.50000374019146C1042.5000280290842,173.50000374019146,1042.5000280290842,122.50000374019146,1057.5000280290842,122.50000374019146L1111.5000280290842,122.50000374019146"></path><path id="kity_path_47" fill="none" stroke="rgb(115, 161, 191)" stroke-width="1" d="M1027.5000280290842,173.50000374019146C1042.5000280290842,173.50000374019146,1042.5000280290842,252.50000374019146,1057.5000280290842,252.50000374019146L1123.5000280290842,252.50000374019146"></path><path id="kity_path_55" fill="none" stroke="rgb(115, 161, 191)" stroke-width="1" d="M1111.5000280290842,122.50000374019146C1126.5000280290842,122.50000374019146,1126.5000280290842,122.50000374019146,1141.5000280290842,122.50000374019146L1315.5000280290842,122.50000374019146"></path><path id="kity_path_63" fill="none" stroke="rgb(115, 161, 191)" stroke-width="1" d="M1315.5000280290842,122.50000374019146C1330.5000280290842,122.50000374019146,1330.5000280290842,44.50000374019146,1345.5000280290842,44.50000374019146L1397.5000280290842,44.50000374019146"></path><path id="kity_path_71" fill="none" stroke="rgb(115, 161, 191)" stroke-width="1" d="M1315.5000280290842,122.50000374019146C1330.5000280290842,122.50000374019146,1330.5000280290842,96.50000374019146,1345.5000280290842,96.50000374019146L1443.5000280290842,96.50000374019146"></path><path id="kity_path_79" fill="none" stroke="rgb(115, 161, 191)" stroke-width="1" d="M1315.5000280290842,122.50000374019146C1330.5000280290842,122.50000374019146,1330.5000280290842,148.50000374019146,1345.5000280290842,148.50000374019146L1418.5000280290842,148.50000374019146"></path><path id="kity_path_87" fill="none" stroke="rgb(115, 161, 191)" stroke-width="1" d="M1315.5000280290842,122.50000374019146C1330.5000280290842,122.50000374019146,1330.5000280290842,200.50000374019146,1345.5000280290842,200.50000374019146L1465.5000280290842,200.50000374019146"></path><path id="kity_path_95" fill="none" stroke="rgb(115, 161, 191)" stroke-width="1" d="M757.0000280290842,303.50000374019146A171.5,1,0,0,1,928.5000280290842,302.50000374019146"></path><path id="kity_path_103" fill="none" stroke="rgb(115, 161, 191)" stroke-width="1" d="M757.0000280290842,303.50000374019146A171.5,65,0,0,0,928.5000280290842,368.50000374019146"></path><path id="kity_path_111" fill="none" stroke="rgb(115, 161, 191)" stroke-width="1" d="M1022.5000280290842,368.50000374019146C1037.5000280290842,368.50000374019146,1037.5000280290842,382.50000374019146,1052.5000280290842,382.50000374019146L1227.5000280290842,382.50000374019146"></path><path id="kity_path_119" fill="none" stroke="rgb(115, 161, 191)" stroke-width="1" d="M757.0000280290842,303.50000374019146A171.5,131,0,0,0,928.5000280290842,434.50000374019146"></path><path id="kity_path_127" fill="none" stroke="rgb(115, 161, 191)" stroke-width="1" d="M757.0000280290842,303.50000374019146A171.5,245,0,0,0,585.5000280290842,58.50000374019146"></path><path id="kity_path_135" fill="none" stroke="rgb(115, 161, 191)" stroke-width="1" d="M757.0000280290842,303.50000374019146A171.5,103,0,0,0,585.5000280290842,200.50000374019146"></path><path id="kity_path_143" fill="none" stroke="rgb(115, 161, 191)" stroke-width="1" d="M431.5000280290842,200.50000374019146C416.5000280290842,200.50000374019146,416.5000280290842,136.50000374019146,401.5000280290842,136.50000374019146L316.5000280290842,136.50000374019146"></path><path id="kity_path_151" fill="none" stroke="rgb(115, 161, 191)" stroke-width="1" d="M431.5000280290842,200.50000374019146C416.5000280290842,200.50000374019146,416.5000280290842,188.50000374019146,401.5000280290842,188.50000374019146L310.5000280290842,188.50000374019146"></path><path id="kity_path_159" fill="none" stroke="rgb(115, 161, 191)" stroke-width="1" d="M431.5000280290842,200.50000374019146C416.5000280290842,200.50000374019146,416.5000280290842,240.50000374019146,401.5000280290842,240.50000374019146L317.5000280290842,240.50000374019146"></path><path id="kity_path_167" fill="none" stroke="rgb(115, 161, 191)" stroke-width="1" d="M431.5000280290842,200.50000374019146C416.5000280290842,200.50000374019146,416.5000280290842,292.50000374019146,401.5000280290842,292.50000374019146L243.5000280290842,292.50000374019146"></path><path id="kity_path_175" fill="none" stroke="rgb(115, 161, 191)" stroke-width="1" d="M757.0000280290842,303.50000374019146A171.5,245,0,0,1,585.5000280290842,548.5000037401915"></path><path id="kity_path_183" fill="none" stroke="rgb(115, 161, 191)" stroke-width="1" d="M388.5000280290842,548.5000037401915C373.5000280290842,548.5000037401915,373.5000280290842,432.50000374019146,358.5000280290842,432.50000374019146L131.5000280290842,432.50000374019146"></path><path id="kity_path_222" fill="none" stroke="rgb(115, 161, 191)" stroke-width="1" d="M131.5000280290842,432.50000374019146C116.5000280290842,432.50000374019146,116.5000280290842,354.50000374019146,101.5000280290842,354.50000374019146L32.500028029084206,354.50000374019146"></path><path id="kity_path_223" fill="none" stroke="rgb(115, 161, 191)" stroke-width="1" d="M131.5000280290842,432.50000374019146C116.5000280290842,432.50000374019146,116.5000280290842,406.50000374019146,101.5000280290842,406.50000374019146L20.500028029084206,406.50000374019146"></path><path id="kity_path_224" fill="none" stroke="rgb(115, 161, 191)" stroke-width="1" d="M131.5000280290842,432.50000374019146C116.5000280290842,432.50000374019146,116.5000280290842,458.50000374019146,101.5000280290842,458.50000374019146L24.500028029084206,458.50000374019146"></path><path id="kity_path_225" fill="none" stroke="rgb(115, 161, 191)" stroke-width="1" d="M131.5000280290842,432.50000374019146C116.5000280290842,432.50000374019146,116.5000280290842,510.50000374019146,101.5000280290842,510.50000374019146L34.500028029084206,510.50000374019146"></path><path id="kity_path_227" fill="none" stroke="rgb(115, 161, 191)" stroke-width="1" d="M388.5000280290842,548.5000037401915C373.5000280290842,548.5000037401915,373.5000280290842,692.5000037401915,358.5000280290842,692.5000037401915L218.5000280290842,692.5000037401915"></path><path id="kity_path_235" fill="none" stroke="rgb(115, 161, 191)" stroke-width="1" d="M218.5000280290842,692.5000037401915C203.5000280290842,692.5000037401915,203.5000280290842,562.5000037401915,188.5000280290842,562.5000037401915L119.5000280290842,562.5000037401915"></path><path id="kity_path_243" fill="none" stroke="rgb(115, 161, 191)" stroke-width="1" d="M218.5000280290842,692.5000037401915C203.5000280290842,692.5000037401915,203.5000280290842,614.5000037401915,188.5000280290842,614.5000037401915L107.5000280290842,614.5000037401915"></path><path id="kity_path_251" fill="none" stroke="rgb(115, 161, 191)" stroke-width="1" d="M218.5000280290842,692.5000037401915C203.5000280290842,692.5000037401915,203.5000280290842,666.5000037401915,188.5000280290842,666.5000037401915L111.5000280290842,666.5000037401915"></path><path id="kity_path_259" fill="none" stroke="rgb(115, 161, 191)" stroke-width="1" d="M218.5000280290842,692.5000037401915C203.5000280290842,692.5000037401915,203.5000280290842,718.5000037401915,188.5000280290842,718.5000037401915L121.5000280290842,718.5000037401915"></path><path id="kity_path_267" fill="none" stroke="rgb(115, 161, 191)" stroke-width="1" d="M218.5000280290842,692.5000037401915C203.5000280290842,692.5000037401915,203.5000280290842,770.5000037401915,188.5000280290842,770.5000037401915L71.5000280290842,770.5000037401915"></path><path id="kity_path_275" fill="none" stroke="rgb(115, 161, 191)" stroke-width="1" d="M218.5000280290842,692.5000037401915C203.5000280290842,692.5000037401915,203.5000280290842,822.5000037401915,188.5000280290842,822.5000037401915L79.5000280290842,822.5000037401915"></path></g><g id="minder_node1"><path id="node_outline1" fill="rgb(115, 161, 191)" stroke="rgb(115, 161, 191)" d="M708.5000280290842,283.50000374019146h97a5,5,0,0,1,5,5v30a5,5,0,0,1,-5,5h-97a5,5,0,0,1,-5,-5v-30a5,5,0,0,1,5,-5z" stroke-width="3"></path><g id="node_text1" fill="white"><text id="kity_text_22" text-rendering="inherit" font-size="16" dy=".8em" y="293.10000357329847" x="727.5000280290842">flex布局</text></g></g><g id="kity_g_14" display="none"><path id="kity_path_15" fill="none" stroke="none" d="M727.5000280290842,303.50000374019146h0v0h0z"></path><path id="kity_path_16" fill="none" stroke="none"></path></g><g id="minder_node2"><g id="node_expander1" style="cursor: pointer;"><path id="kity_path_36" fill="white" stroke="gray" d="M929.5000338703394,173.49999986588955A6,6,0,1,1,917.5000338703394,173.49999986588955A6,6,0,1,1,929.5000338703394,173.49999986588955"></path><path id="kity_path_37" fill="none" stroke="gray" d="M919.0000338703394,173.49999986588955L928.0000338703394,173.49999986588955"></path></g><path id="node_outline2" fill="rgb(238, 243, 246)" stroke="rgb(115, 161, 191)" d="M933.5000346750021,160.49999986588955h91a3,3,0,0,1,3,3v20a3,3,0,0,1,-3,3h-91a3,3,0,0,1,-3,-3v-20a3,3,0,0,1,3,-3z" stroke-width="1"></path><g id="node_text2" fill="black"><text id="kity_text_33" text-rendering="inherit" font-size="14" dy=".8em" y="164.3999998986721" x="950.5000346750021">两根轴线</text></g></g><g id="minder_node3"><g id="node_expander2" style="cursor: pointer;"><path id="kity_path_44" fill="white" stroke="gray" d="M1067.5000379830599,108.4999979287386A6,6,0,1,1,1055.5000379830599,108.4999979287386A6,6,0,1,1,1067.5000379830599,108.4999979287386"></path><path id="kity_path_45" fill="none" stroke="gray" d="M1057.0000379830599,108.4999979287386L1066.0000379830599,108.4999979287386"></path></g><path id="node_outline3" fill="none" stroke="none" d="M1072.500038459897,97.4999979287386h34a5,5,0,0,1,5,5v12a5,5,0,0,1,-5,5h-34a5,5,0,0,1,-5,-5v-12a5,5,0,0,1,5,-5z" stroke-width="3"></path><g id="node_text3" fill="black"><text id="kity_text_41" text-rendering="inherit" font-size="12" dy=".8em" y="100.699998002251" x="1077.500038459897">主轴</text></g></g><g id="minder_node4"><g id="node_expander3" style="cursor: pointer;" display="none"><path id="kity_path_52" fill="white" stroke="gray" d="M1067.5000379830599,238.5000018030405A6,6,0,1,1,1055.5000379830599,238.5000018030405A6,6,0,1,1,1067.5000379830599,238.5000018030405"></path><path id="kity_path_53" fill="none" stroke="gray"></path></g><path id="node_outline4" fill="none" stroke="none" d="M1072.500038459897,227.5000018030405h46a5,5,0,0,1,5,5v12a5,5,0,0,1,-5,5h-46a5,5,0,0,1,-5,-5v-12a5,5,0,0,1,5,-5z" stroke-width="3"></path><g id="node_text4" fill="black"><text id="kity_text_49" text-rendering="inherit" font-size="12" dy=".8em" y="230.7000018765529" x="1077.500038459897">交叉轴</text></g></g><g id="minder_node5"><g id="node_expander4" style="cursor: pointer;"><path id="kity_path_60" fill="white" stroke="gray" d="M1151.500040486455,108.4999979287386A6,6,0,1,1,1139.500040486455,108.4999979287386A6,6,0,1,1,1151.500040486455,108.4999979287386"></path><path id="kity_path_61" fill="none" stroke="gray" d="M1141.000040486455,108.4999979287386L1150.000040486455,108.4999979287386"></path></g><path id="node_outline5" fill="none" stroke="none" d="M1156.5000409632921,97.4999979287386h154a5,5,0,0,1,5,5v12a5,5,0,0,1,-5,5h-154a5,5,0,0,1,-5,-5v-12a5,5,0,0,1,5,-5z" stroke-width="3"></path><g id="node_text5" fill="black"><text id="kity_text_57" text-rendering="inherit" font-size="12" dy=".8em" y="100.699998002251" x="1161.5000409632921">主轴由&#xa0;flex-direction&#xa0;定义</text></g></g><g id="minder_node6"><g id="node_expander5" style="cursor: pointer;" display="none"><path id="kity_path_68" fill="white" stroke="gray" d="M1355.5000465661287,30.499995604157448A6,6,0,1,1,1343.5000465661287,30.499995604157448A6,6,0,1,1,1355.5000465661287,30.499995604157448"></path><path id="kity_path_69" fill="none" stroke="gray"></path></g><path id="node_outline6" fill="none" stroke="none" d="M1360.500047042966,19.499995604157448h32a5,5,0,0,1,5,5v12a5,5,0,0,1,-5,5h-32a5,5,0,0,1,-5,-5v-12a5,5,0,0,1,5,-5z" stroke-width="3"></path><g id="node_text6" fill="black"><text id="kity_text_65" text-rendering="inherit" font-size="12" dy=".8em" y="22.699995677669847" x="1365.500047042966">row</text></g></g><g id="minder_node7"><g id="node_expander6" style="cursor: pointer;" display="none"><path id="kity_path_76" fill="white" stroke="gray" d="M1355.5000465661287,82.49999715387821A6,6,0,1,1,1343.5000465661287,82.49999715387821A6,6,0,1,1,1355.5000465661287,82.49999715387821"></path><path id="kity_path_77" fill="none" stroke="gray"></path></g><path id="node_outline7" fill="none" stroke="none" d="M1360.500047042966,71.49999715387821h78a5,5,0,0,1,5,5v12a5,5,0,0,1,-5,5h-78a5,5,0,0,1,-5,-5v-12a5,5,0,0,1,5,-5z" stroke-width="3"></path><g id="node_text7" fill="black"><text id="kity_text_73" text-rendering="inherit" font-size="12" dy=".8em" y="74.69999722739061" x="1365.500047042966">row-reverse</text></g></g><g id="minder_node8"><g id="node_expander7" style="cursor: pointer;" display="none"><path id="kity_path_84" fill="white" stroke="gray" d="M1355.5000465661287,134.49999870359898A6,6,0,1,1,1343.5000465661287,134.49999870359898A6,6,0,1,1,1355.5000465661287,134.49999870359898"></path><path id="kity_path_85" fill="none" stroke="gray"></path></g><path id="node_outline8" fill="none" stroke="none" d="M1360.500047042966,123.49999870359898h53a5,5,0,0,1,5,5v12a5,5,0,0,1,-5,5h-53a5,5,0,0,1,-5,-5v-12a5,5,0,0,1,5,-5z" stroke-width="3"></path><g id="node_text8" fill="black"><text id="kity_text_81" text-rendering="inherit" font-size="12" dy=".8em" y="126.69999877711138" x="1365.500047042966">column</text></g></g><g id="minder_node9"><g id="node_expander8" style="cursor: pointer;" display="none"><path id="kity_path_92" fill="white" stroke="gray" d="M1355.5000465661287,186.50000025331974A6,6,0,1,1,1343.5000465661287,186.50000025331974A6,6,0,1,1,1355.5000465661287,186.50000025331974"></path><path id="kity_path_93" fill="none" stroke="gray"></path></g><path id="node_outline9" fill="none" stroke="none" d="M1360.500047042966,175.50000025331974h100a5,5,0,0,1,5,5v12a5,5,0,0,1,-5,5h-100a5,5,0,0,1,-5,-5v-12a5,5,0,0,1,5,-5z" stroke-width="3"></path><g id="node_text9" fill="black"><text id="kity_text_89" text-rendering="inherit" font-size="12" dy=".8em" y="178.70000032683214" x="1365.500047042966">column-reverse</text></g></g><g id="minder_node10"><g id="node_expander9" style="cursor: pointer;" display="none"><path id="kity_path_100" fill="white" stroke="gray" d="M929.5000338703394,302.50000371038914A6,6,0,1,1,917.5000338703394,302.50000371038914A6,6,0,1,1,929.5000338703394,302.50000371038914"></path><path id="kity_path_101" fill="none" stroke="gray"></path></g><path id="node_outline10" fill="rgb(238, 243, 246)" stroke="rgb(115, 161, 191)" d="M933.5000346750021,289.50000371038914h133a3,3,0,0,1,3,3v20a3,3,0,0,1,-3,3h-133a3,3,0,0,1,-3,-3v-20a3,3,0,0,1,3,-3z" stroke-width="1"></path><g id="node_text10" fill="black"><text id="kity_text_97" text-rendering="inherit" font-size="14" dy=".8em" y="293.4000037431717" x="950.5000346750021">起始线和终止线</text></g></g><g id="minder_node11"><g id="node_expander10" style="cursor: pointer;"><path id="kity_path_108" fill="white" stroke="gray" d="M929.5000338703394,368.5000056773424A6,6,0,1,1,917.5000338703394,368.5000056773424A6,6,0,1,1,929.5000338703394,368.5000056773424"></path><path id="kity_path_109" fill="none" stroke="gray" d="M919.0000338703394,368.5000056773424L928.0000338703394,368.5000056773424"></path></g><path id="node_outline11" fill="rgb(238, 243, 246)" stroke="rgb(115, 161, 191)" d="M933.5000346750021,355.5000056773424h86a3,3,0,0,1,3,3v20a3,3,0,0,1,-3,3h-86a3,3,0,0,1,-3,-3v-20a3,3,0,0,1,3,-3z" stroke-width="1"></path><g id="node_text11" fill="black"><text id="kity_text_105" text-rendering="inherit" font-size="14" dy=".8em" y="359.40000571012496" x="950.5000346750021">flex容器</text></g></g><g id="minder_node12"><g id="node_expander11" style="cursor: pointer;" display="none"><path id="kity_path_116" fill="white" stroke="gray" d="M1062.5000378340483,368.5000056773424A6,6,0,1,1,1050.5000378340483,368.5000056773424A6,6,0,1,1,1062.5000378340483,368.5000056773424"></path><path id="kity_path_117" fill="none" stroke="gray"></path></g><path id="node_outline12" fill="none" stroke="none" d="M1067.5000383108854,357.5000056773424h155a5,5,0,0,1,5,5v12a5,5,0,0,1,-5,5h-155a5,5,0,0,1,-5,-5v-12a5,5,0,0,1,5,-5z" stroke-width="3"></path><g id="node_text12" fill="black"><text id="kity_text_113" text-rendering="inherit" font-size="12" dy=".8em" y="360.7000057508548" x="1072.5000383108854">更改flex方向flex-direction</text></g></g><g id="minder_node13"><g id="node_expander12" style="cursor: pointer;" display="none"><path id="kity_path_124" fill="white" stroke="gray" d="M929.5000338703394,434.5000076442957A6,6,0,1,1,917.5000338703394,434.5000076442957A6,6,0,1,1,929.5000338703394,434.5000076442957"></path><path id="kity_path_125" fill="none" stroke="gray"></path></g><path id="node_outline13" fill="rgb(238, 243, 246)" stroke="rgb(115, 161, 191)" d="M933.5000346750021,421.5000076442957h222a3,3,0,0,1,3,3v20a3,3,0,0,1,-3,3h-222a3,3,0,0,1,-3,-3v-20a3,3,0,0,1,3,-3z" stroke-width="1"></path><g id="node_text13" fill="black"><text id="kity_text_121" text-rendering="inherit" font-size="14" dy=".8em" y="425.40000767707824" x="950.5000346750021">用flex-wrap实现多行Flex容器</text></g></g><g id="minder_node14"><g id="node_expander13" style="cursor: pointer;" display="none"><path id="kity_path_132" fill="white" stroke="gray" d="M596.500023946166,58.499996438622475A6,6,0,1,1,584.500023946166,58.499996438622475A6,6,0,1,1,596.500023946166,58.499996438622475"></path><path id="kity_path_133" fill="none" stroke="gray"></path></g><path id="node_outline14" fill="rgb(238, 243, 246)" stroke="rgb(115, 161, 191)" d="M431.50001971423626,45.499996438622475h149a3,3,0,0,1,3,3v20a3,3,0,0,1,-3,3h-149a3,3,0,0,1,-3,-3v-20a3,3,0,0,1,3,-3z" stroke-width="1"></path><g id="node_text14" fill="black"><text id="kity_text_129" text-rendering="inherit" font-size="14" dy=".8em" y="49.39999647140503" x="448.50001971423626">简写属性flex-flow</text></g></g><g id="minder_node15"><g id="node_expander14" style="cursor: pointer;"><path id="kity_path_140" fill="white" stroke="gray" d="M596.500023946166,200.50000067055225A6,6,0,1,1,584.500023946166,200.50000067055225A6,6,0,1,1,596.500023946166,200.50000067055225"></path><path id="kity_path_141" fill="none" stroke="gray" d="M586.000023946166,200.50000067055225L595.000023946166,200.50000067055225"></path></g><path id="node_outline15" fill="rgb(238, 243, 246)" stroke="rgb(115, 161, 191)" d="M434.5000198036432,187.50000067055225h146a3,3,0,0,1,3,3v20a3,3,0,0,1,-3,3h-146a3,3,0,0,1,-3,-3v-20a3,3,0,0,1,3,-3z" stroke-width="1"></path><g id="node_text15" fill="black"><text id="kity_text_137" text-rendering="inherit" font-size="14" dy=".8em" y="191.4000007033348" x="451.5000198036432">flex 元素上的属性</text></g></g><g id="minder_node16"><g id="node_expander15" style="cursor: pointer;" display="none"><path id="kity_path_148" fill="white" stroke="gray" d="M403.5000181943178,122.49999834597111A6,6,0,1,1,391.5000181943178,122.49999834597111A6,6,0,1,1,403.5000181943178,122.49999834597111"></path><path id="kity_path_149" fill="none" stroke="gray"></path></g><path id="node_outline16" fill="none" stroke="none" d="M321.5000160783529,111.49999834597111h65a5,5,0,0,1,5,5v12a5,5,0,0,1,-5,5h-65a5,5,0,0,1,-5,-5v-12a5,5,0,0,1,5,-5z" stroke-width="3"></path><g id="node_text16" fill="black"><text id="kity_text_145" text-rendering="inherit" font-size="12" dy=".8em" y="114.6999984194835" x="326.5000160783529">flex-grow</text></g></g><g id="minder_node17"><g id="node_expander16" style="cursor: pointer;" display="none"><path id="kity_path_156" fill="white" stroke="gray" d="M403.5000181943178,174.49999989569187A6,6,0,1,1,391.5000181943178,174.49999989569187A6,6,0,1,1,403.5000181943178,174.49999989569187"></path><path id="kity_path_157" fill="none" stroke="gray"></path></g><path id="node_outline17" fill="none" stroke="none" d="M315.500015899539,163.49999989569187h71a5,5,0,0,1,5,5v12a5,5,0,0,1,-5,5h-71a5,5,0,0,1,-5,-5v-12a5,5,0,0,1,5,-5z" stroke-width="3"></path><g id="node_text17" fill="black"><text id="kity_text_153" text-rendering="inherit" font-size="12" dy=".8em" y="166.69999996920427" x="320.500015899539">flex-shirnk</text></g></g><g id="minder_node18"><g id="node_expander17" style="cursor: pointer;" display="none"><path id="kity_path_164" fill="white" stroke="gray" d="M403.5000181943178,226.50000144541264A6,6,0,1,1,391.5000181943178,226.50000144541264A6,6,0,1,1,403.5000181943178,226.50000144541264"></path><path id="kity_path_165" fill="none" stroke="gray"></path></g><path id="node_outline18" fill="none" stroke="none" d="M322.50001610815525,215.50000144541264h64a5,5,0,0,1,5,5v12a5,5,0,0,1,-5,5h-64a5,5,0,0,1,-5,-5v-12a5,5,0,0,1,5,-5z" stroke-width="3"></path><g id="node_text18" fill="black"><text id="kity_text_161" text-rendering="inherit" font-size="12" dy=".8em" y="218.70000151892503" x="327.50001610815525">flex-basis</text></g></g><g id="minder_node19"><g id="node_expander18" style="cursor: pointer;" display="none"><path id="kity_path_172" fill="white" stroke="gray" d="M403.5000181943178,278.5000029951334A6,6,0,1,1,391.5000181943178,278.5000029951334A6,6,0,1,1,403.5000181943178,278.5000029951334"></path><path id="kity_path_173" fill="none" stroke="gray"></path></g><path id="node_outline19" fill="none" stroke="none" d="M248.5000139027834,267.5000029951334h138a5,5,0,0,1,5,5v12a5,5,0,0,1,-5,5h-138a5,5,0,0,1,-5,-5v-12a5,5,0,0,1,5,-5z" stroke-width="3"></path><g id="node_text19" fill="black"><text id="kity_text_169" text-rendering="inherit" font-size="12" dy=".8em" y="270.7000030686458" x="253.5000139027834">上面三个flex属性的简写</text></g></g><g id="minder_node20"><g id="node_expander19" style="cursor: pointer;"><path id="kity_path_180" fill="white" stroke="gray" d="M596.500023946166,548.5000110417604A6,6,0,1,1,584.500023946166,548.5000110417604A6,6,0,1,1,596.500023946166,548.5000110417604"></path><path id="kity_path_181" fill="none" stroke="gray" d="M586.000023946166,548.5000110417604L595.000023946166,548.5000110417604"></path></g><path id="node_outline20" fill="rgb(238, 243, 246)" stroke="rgb(115, 161, 191)" d="M391.50001852214336,535.5000110417604h189a3,3,0,0,1,3,3v20a3,3,0,0,1,-3,3h-189a3,3,0,0,1,-3,-3v-20a3,3,0,0,1,3,-3z" stroke-width="1"></path><g id="node_text20" fill="black"><text id="kity_text_177" text-rendering="inherit" font-size="14" dy=".8em" y="539.400011074543" x="408.50001852214336">元素间的对齐和空间分配</text></g></g><g id="minder_node21" opacity="1"><g id="node_expander20" style="cursor: pointer;"><path id="kity_path_188" fill="white" stroke="gray" d="M360.50001691281796,418.50000716745853A6,6,0,1,1,348.50001691281796,418.50000716745853A6,6,0,1,1,360.50001691281796,418.50000716745853"></path><path id="kity_path_189" fill="none" stroke="gray" d="M350.00001691281796,418.50000716745853L359.00001691281796,418.50000716745853"></path></g><path id="node_outline21" fill="none" stroke="none" d="M136.5000105649233,407.50000716745853h207a5,5,0,0,1,5,5v12a5,5,0,0,1,-5,5h-207a5,5,0,0,1,-5,-5v-12a5,5,0,0,1,5,-5z" stroke-width="3"></path><g id="node_text21" fill="black"><text id="kity_text_185" text-rendering="inherit" font-size="12" dy=".8em" y="410.70000724097093" x="141.5000105649233">align-items使元素在交叉轴方向对齐</text></g></g><g id="kity_g_12" display="none"><path id="kity_path_13" fill="none" stroke="rgb(66, 94, 112)" d="M391.5000280290842,470.50000374019146h189a3,3,0,0,1,3,3v20a3,3,0,0,1,-3,3h-189a3,3,0,0,1,-3,-3v-20a3,3,0,0,1,3,-3z" stroke-width="5"></path></g><g id="minder_node22"><g id="node_expander21" style="cursor: pointer;" display="none"><path id="kity_path_196" fill="white" stroke="gray" d="M103.5000092536211,340.5000048428774A6,6,0,1,1,91.5000092536211,340.5000048428774A6,6,0,1,1,103.5000092536211,340.5000048428774"></path><path id="kity_path_197" fill="none" stroke="gray"></path></g><path id="node_outline22" fill="none" stroke="none" d="M37.50000761449337,329.5000048428774h49a5,5,0,0,1,5,5v12a5,5,0,0,1,-5,5h-49a5,5,0,0,1,-5,-5v-12a5,5,0,0,1,5,-5z" stroke-width="3"></path><g id="node_text22" fill="black"><text id="kity_text_193" text-rendering="inherit" font-size="12" dy=".8em" y="332.7000049163898" x="42.50000761449337">stretch</text></g></g><g id="minder_node23"><g id="node_expander22" style="cursor: pointer;" display="none"><path id="kity_path_204" fill="white" stroke="gray" d="M103.5000092536211,392.50000639259815A6,6,0,1,1,91.5000092536211,392.50000639259815A6,6,0,1,1,103.5000092536211,392.50000639259815"></path><path id="kity_path_205" fill="none" stroke="gray"></path></g><path id="node_outline23" fill="none" stroke="none" d="M25.5000072568655,381.50000639259815h61a5,5,0,0,1,5,5v12a5,5,0,0,1,-5,5h-61a5,5,0,0,1,-5,-5v-12a5,5,0,0,1,5,-5z" stroke-width="3"></path><g id="node_text23" fill="black"><text id="kity_text_201" text-rendering="inherit" font-size="12" dy=".8em" y="384.70000646611055" x="30.5000072568655">flex-start</text></g></g><g id="minder_node24"><g id="node_expander23" style="cursor: pointer;" display="none"><path id="kity_path_212" fill="white" stroke="gray" d="M103.5000092536211,444.5000079423189A6,6,0,1,1,91.5000092536211,444.5000079423189A6,6,0,1,1,103.5000092536211,444.5000079423189"></path><path id="kity_path_213" fill="none" stroke="gray"></path></g><path id="node_outline24" fill="none" stroke="none" d="M29.50000737607479,433.5000079423189h57a5,5,0,0,1,5,5v12a5,5,0,0,1,-5,5h-57a5,5,0,0,1,-5,-5v-12a5,5,0,0,1,5,-5z" stroke-width="3"></path><g id="node_text24" fill="black"><text id="kity_text_209" text-rendering="inherit" font-size="12" dy=".8em" y="436.7000080158313" x="34.50000737607479">flex-end</text></g></g><g id="minder_node25"><g id="node_expander24" style="cursor: pointer;" display="none"><path id="kity_path_220" fill="white" stroke="gray" d="M103.5000092536211,496.5000094920397A6,6,0,1,1,91.5000092536211,496.5000094920397A6,6,0,1,1,103.5000092536211,496.5000094920397"></path><path id="kity_path_221" fill="none" stroke="gray"></path></g><path id="node_outline25" fill="none" stroke="none" d="M39.500007674098015,485.5000094920397h47a5,5,0,0,1,5,5v12a5,5,0,0,1,-5,5h-47a5,5,0,0,1,-5,-5v-12a5,5,0,0,1,5,-5z" stroke-width="3"></path><g id="node_text25" fill="black"><text id="kity_text_217" text-rendering="inherit" font-size="12" dy=".8em" y="488.7000095655521" x="44.500007674098015">center</text></g></g><g id="minder_node26"><g id="node_expander25" style="cursor: pointer;"><path id="kity_path_232" fill="white" stroke="gray" d="M360.50001691281796,678.5000149160624A6,6,0,1,1,348.50001691281796,678.5000149160624A6,6,0,1,1,360.50001691281796,678.5000149160624"></path><path id="kity_path_233" fill="none" stroke="gray" d="M350.00001691281796,678.5000149160624L359.00001691281796,678.5000149160624"></path></g><path id="node_outline26" fill="none" stroke="none" d="M223.50001315772533,667.5000149160624h120a5,5,0,0,1,5,5v12a5,5,0,0,1,-5,5h-120a5,5,0,0,1,-5,-5v-12a5,5,0,0,1,5,-5z" stroke-width="3"></path><g id="node_text26" fill="black"><text id="kity_text_229" text-rendering="inherit" font-size="12" dy=".8em" y="670.7000149895748" x="228.50001315772533">justify-content主轴</text></g></g><g id="minder_node27"><g id="node_expander26" style="cursor: pointer;" display="none"><path id="kity_path_240" fill="white" stroke="gray" d="M190.50001184642315,548.5000110417604A6,6,0,1,1,178.50001184642315,548.5000110417604A6,6,0,1,1,190.50001184642315,548.5000110417604"></path><path id="kity_path_241" fill="none" stroke="gray"></path></g><path id="node_outline27" fill="none" stroke="none" d="M124.50001020729542,537.5000110417604h49a5,5,0,0,1,5,5v12a5,5,0,0,1,-5,5h-49a5,5,0,0,1,-5,-5v-12a5,5,0,0,1,5,-5z" stroke-width="3"></path><g id="node_text27" fill="black"><text id="kity_text_237" text-rendering="inherit" font-size="12" dy=".8em" y="540.7000111152729" x="129.50001020729542">stretch</text></g></g><g id="minder_node28"><g id="node_expander27" style="cursor: pointer;" display="none"><path id="kity_path_248" fill="white" stroke="gray" d="M190.50001184642315,600.5000125914812A6,6,0,1,1,178.50001184642315,600.5000125914812A6,6,0,1,1,190.50001184642315,600.5000125914812"></path><path id="kity_path_249" fill="none" stroke="gray"></path></g><path id="node_outline28" fill="none" stroke="none" d="M112.50000984966755,589.5000125914812h61a5,5,0,0,1,5,5v12a5,5,0,0,1,-5,5h-61a5,5,0,0,1,-5,-5v-12a5,5,0,0,1,5,-5z" stroke-width="3"></path><g id="node_text28" fill="black"><text id="kity_text_245" text-rendering="inherit" font-size="12" dy=".8em" y="592.7000126649937" x="117.50000984966755">flex-start</text></g></g><g id="minder_node29"><g id="node_expander28" style="cursor: pointer;" display="none"><path id="kity_path_256" fill="white" stroke="gray" d="M190.50001184642315,652.500014141202A6,6,0,1,1,178.50001184642315,652.500014141202A6,6,0,1,1,190.50001184642315,652.500014141202"></path><path id="kity_path_257" fill="none" stroke="gray"></path></g><path id="node_outline29" fill="none" stroke="none" d="M116.50000996887684,641.500014141202h57a5,5,0,0,1,5,5v12a5,5,0,0,1,-5,5h-57a5,5,0,0,1,-5,-5v-12a5,5,0,0,1,5,-5z" stroke-width="3"></path><g id="node_text29" fill="black"><text id="kity_text_253" text-rendering="inherit" font-size="12" dy=".8em" y="644.7000142147144" x="121.50000996887684">flex-end</text></g></g><g id="minder_node30"><g id="node_expander29" style="cursor: pointer;" display="none"><path id="kity_path_264" fill="white" stroke="gray" d="M190.50001184642315,704.5000156909227A6,6,0,1,1,178.50001184642315,704.5000156909227A6,6,0,1,1,190.50001184642315,704.5000156909227"></path><path id="kity_path_265" fill="none" stroke="gray"></path></g><path id="node_outline30" fill="none" stroke="none" d="M126.50001026690006,693.5000156909227h47a5,5,0,0,1,5,5v12a5,5,0,0,1,-5,5h-47a5,5,0,0,1,-5,-5v-12a5,5,0,0,1,5,-5z" stroke-width="3"></path><g id="node_text30" fill="black"><text id="kity_text_261" text-rendering="inherit" font-size="12" dy=".8em" y="696.7000157644352" x="131.50001026690006">center</text></g></g><g id="minder_node31"><g id="node_expander30" style="cursor: pointer;" display="none"><path id="kity_path_272" fill="white" stroke="gray" d="M190.50001184642315,756.5000172406435A6,6,0,1,1,178.50001184642315,756.5000172406435A6,6,0,1,1,190.50001184642315,756.5000172406435"></path><path id="kity_path_273" fill="none" stroke="gray"></path></g><path id="node_outline31" fill="none" stroke="none" d="M76.50000877678394,745.5000172406435h97a5,5,0,0,1,5,5v12a5,5,0,0,1,-5,5h-97a5,5,0,0,1,-5,-5v-12a5,5,0,0,1,5,-5z" stroke-width="3"></path><g id="node_text31" fill="black"><text id="kity_text_269" text-rendering="inherit" font-size="12" dy=".8em" y="748.700017314156" x="81.50000877678394">space-between</text></g></g><g id="minder_node32"><g id="node_expander31" style="cursor: pointer;" display="none"><path id="kity_path_280" fill="white" stroke="gray" d="M190.50001184642315,808.5000187903643A6,6,0,1,1,178.50001184642315,808.5000187903643A6,6,0,1,1,190.50001184642315,808.5000187903643"></path><path id="kity_path_281" fill="none" stroke="gray"></path></g><path id="node_outline32" fill="none" stroke="none" d="M84.50000901520252,797.5000187903643h89a5,5,0,0,1,5,5v12a5,5,0,0,1,-5,5h-89a5,5,0,0,1,-5,-5v-12a5,5,0,0,1,5,-5z" stroke-width="3"></path><g id="node_text32" fill="black"><text id="kity_text_277" text-rendering="inherit" font-size="12" dy=".8em" y="800.7000188638767" x="89.50000901520252">space-around</text></g></g></g></g></svg>